<svg xmlns="http://www.w3.org/2000/svg" xmlns:xlink="http://www.w3.org/1999/xlink" width="512" zoomAndPan="magnify" viewBox="0 0 384 383.999986" height="512" preserveAspectRatio="xMidYMid meet" version="1.0"><defs><g/><clipPath id="0e0067c587"><rect x="0" width="378" y="0" height="384"/></clipPath></defs><g><g clip-path="url(#0e0067c587)"><g fill="#000000" fill-opacity="1"><g transform="translate(-6.992026, 296.2631)"><g><path d="M 259.625 -250.671875 L 259.625 0 L 212 0 L 87.015625 -152.203125 L 87.015625 0 L 29.71875 0 L 29.71875 -250.671875 L 77.703125 -250.671875 L 202.328125 -98.484375 L 202.328125 -250.671875 Z M 259.625 -250.671875 "/></g></g></g><g fill="#000000" fill-opacity="1"><g transform="translate(282.360115, 296.2631)"><g><path d="M 46.90625 2.859375 C 37.125 2.859375 28.890625 -0.476562 22.203125 -7.15625 C 15.515625 -13.84375 12.171875 -22.203125 12.171875 -32.234375 C 12.171875 -42.492188 15.515625 -50.785156 22.203125 -57.109375 C 28.890625 -63.441406 37.125 -66.609375 46.90625 -66.609375 C 56.695312 -66.609375 64.9375 -63.441406 71.625 -57.109375 C 78.3125 -50.785156 81.65625 -42.492188 81.65625 -32.234375 C 81.65625 -22.203125 78.3125 -13.84375 71.625 -7.15625 C 64.9375 -0.476562 56.695312 2.859375 46.90625 2.859375 Z M 46.90625 2.859375 "/></g></g></g><path stroke-linecap="butt" transform="matrix(0.895274, 0, 0, 0.895274, 22.151785, 321.37556)" fill="none" stroke-linejoin="miter" d="M 0.000624506 17.500123 L 378.821363 17.500123 " stroke="#000000" stroke-width="35" stroke-opacity="1" stroke-miterlimit="4"/></g></g></svg>