<svg xmlns="http://www.w3.org/2000/svg" xmlns:xlink="http://www.w3.org/1999/xlink" width="512" zoomAndPan="magnify" viewBox="0 0 384 383.999986" height="512" preserveAspectRatio="xMidYMid meet" version="1.0"><defs><g/></defs><rect x="-38.4" width="460.8" fill="#ffffff" y="-38.399999" height="460.799983" fill-opacity="1"/><rect x="-38.4" width="460.8" fill="#ffffff" y="-38.399999" height="460.799983" fill-opacity="1"/><g fill="#000000" fill-opacity="1"><g transform="translate(31.500005, 276.095429)"><g><path d="M 217.5 -210 L 217.5 0 L 177.59375 0 L 72.90625 -127.5 L 72.90625 0 L 24.90625 0 L 24.90625 -210 L 65.09375 -210 L 169.5 -82.5 L 169.5 -210 Z M 217.5 -210 "/></g></g></g><g fill="#000000" fill-opacity="1"><g transform="translate(273.899581, 276.095429)"><g><path d="M 39.296875 2.40625 C 31.097656 2.40625 24.195312 -0.394531 18.59375 -6 C 13 -11.601562 10.203125 -18.601562 10.203125 -27 C 10.203125 -35.601562 13 -42.550781 18.59375 -47.84375 C 24.195312 -53.144531 31.097656 -55.796875 39.296875 -55.796875 C 47.492188 -55.796875 54.394531 -53.144531 60 -47.84375 C 65.601562 -42.550781 68.40625 -35.601562 68.40625 -27 C 68.40625 -18.601562 65.601562 -11.601562 60 -6 C 54.394531 -0.394531 47.492188 2.40625 39.296875 2.40625 Z M 39.296875 2.40625 "/></g></g></g><path stroke-linecap="butt" transform="matrix(0.75, 0, 0, 0.75, 55.914716, 304.632926)" fill="none" stroke-linejoin="miter" d="M -0.000870765 7.499849 L 378.822076 7.499849 " stroke="#000000" stroke-width="15" stroke-opacity="1" stroke-miterlimit="4"/></svg>